<svg xmlns="http://www.w3.org/2000/svg" viewBox="0 0 874 532" width="874" height="532" font-family="ui-monospace, 'SF Mono', 'JetBrains Mono', Menlo, Consolas, 'DejaVu Sans Mono', monospace" font-size="14">
<rect width="100%" height="100%" fill="#171314" rx="8"/>
<rect x="0.0" y="0.0" width="873.6" height="19.0" fill="#d50c0c" rx="0"/>
<rect x="4.2" y="28.5" width="210.0" height="209.0" rx="7" fill="none" stroke="#5a4c50" stroke-width="1.3"/>
<rect x="12.6" y="19.0" width="50.4" height="19" fill="#171314"/>
<rect x="176.4" y="95.0" width="25.2" height="19.0" fill="#ee3a33" rx="0"/>
<rect x="8.4" y="114.0" width="201.6" height="19.0" fill="#d50c0c" rx="0"/>
<rect x="176.4" y="114.0" width="25.2" height="19.0" fill="#a50a0a" rx="0"/>
<rect x="4.2" y="256.5" width="210.0" height="247.0" rx="7" fill="none" stroke="#5a4c50" stroke-width="1.3"/>
<rect x="12.6" y="247.0" width="142.8" height="19" fill="#171314"/>
<rect x="16.8" y="299.2" width="6.7" height="4.8" fill="#a8322d" rx="0"/>
<rect x="25.2" y="294.5" width="6.7" height="9.5" fill="#a8322d" rx="0"/>
<rect x="33.6" y="289.8" width="6.7" height="14.2" fill="#a8322d" rx="0"/>
<rect x="42.0" y="282.6" width="6.7" height="21.4" fill="#a8322d" rx="0"/>
<rect x="50.4" y="275.5" width="6.7" height="28.5" fill="#ee3a33" rx="0"/>
<rect x="58.8" y="285.0" width="6.7" height="19.0" fill="#a8322d" rx="0"/>
<rect x="67.2" y="292.1" width="6.7" height="11.9" fill="#a8322d" rx="0"/>
<rect x="75.6" y="296.9" width="6.7" height="7.1" fill="#a8322d" rx="0"/>
<rect x="84.0" y="289.8" width="6.7" height="14.2" fill="#a8322d" rx="0"/>
<rect x="92.4" y="280.2" width="6.7" height="23.8" fill="#ee3a33" rx="0"/>
<rect x="100.8" y="270.8" width="6.7" height="33.2" fill="#ee3a33" rx="0"/>
<rect x="109.2" y="277.9" width="6.7" height="26.1" fill="#ee3a33" rx="0"/>
<rect x="117.6" y="287.4" width="6.7" height="16.6" fill="#a8322d" rx="0"/>
<rect x="126.0" y="294.5" width="6.7" height="9.5" fill="#a8322d" rx="0"/>
<rect x="134.4" y="289.8" width="6.7" height="14.2" fill="#a8322d" rx="0"/>
<rect x="142.8" y="282.6" width="6.7" height="21.4" fill="#a8322d" rx="0"/>
<rect x="151.2" y="292.1" width="6.7" height="11.9" fill="#a8322d" rx="0"/>
<rect x="159.6" y="296.9" width="6.7" height="7.1" fill="#a8322d" rx="0"/>
<rect x="168.0" y="299.2" width="6.7" height="4.8" fill="#a8322d" rx="0"/>
<rect x="176.4" y="294.5" width="6.7" height="9.5" fill="#a8322d" rx="0"/>
<rect x="184.8" y="287.4" width="6.7" height="16.6" fill="#a8322d" rx="0"/>
<rect x="193.2" y="292.1" width="6.7" height="11.9" fill="#a8322d" rx="0"/>
<rect x="16.8" y="369.0" width="184.8" height="3.0" fill="#5a4c50" rx="0"/>
<rect x="16.8" y="369.0" width="84.0" height="3.0" fill="#ee3a33" rx="0"/>
<rect x="25.2" y="365.8" width="1.0" height="9.5" fill="#171314" rx="0"/>
<rect x="33.6" y="365.8" width="1.0" height="9.5" fill="#171314" rx="0"/>
<rect x="75.6" y="365.8" width="1.0" height="9.5" fill="#171314" rx="0"/>
<rect x="134.4" y="365.8" width="1.0" height="9.5" fill="#171314" rx="0"/>
<rect x="168.0" y="365.8" width="1.0" height="9.5" fill="#171314" rx="0"/>
<rect x="193.2" y="365.8" width="1.0" height="9.5" fill="#171314" rx="0"/>
<circle cx="100.8" cy="370.5" r="4" fill="#ee3a33"/>
<rect x="16.8" y="456.0" width="25.2" height="19.0" fill="#3d3135" rx="0"/>
<rect x="58.8" y="456.0" width="25.2" height="19.0" fill="#3d3135" rx="0"/>
<rect x="96.6" y="456.0" width="25.2" height="19.0" fill="#3d3135" rx="0"/>
<rect x="134.4" y="456.0" width="25.2" height="19.0" fill="#3d3135" rx="0"/>
<rect x="176.4" y="456.0" width="25.2" height="19.0" fill="#3d3135" rx="0"/>
<rect x="8.4" y="513.0" width="33.6" height="19.0" fill="#3d3135" rx="0"/>
<rect x="134.4" y="513.0" width="42.0" height="19.0" fill="#3d3135" rx="0"/>
<rect x="302.4" y="513.0" width="25.2" height="19.0" fill="#3d3135" rx="0"/>
<rect x="436.8" y="513.0" width="25.2" height="19.0" fill="#3d3135" rx="0"/>
<rect x="604.8" y="513.0" width="25.2" height="19.0" fill="#3d3135" rx="0"/>
<rect x="714.0" y="513.0" width="42.0" height="19.0" fill="#3d3135" rx="0"/>
<rect x="222.6" y="28.5" width="646.8" height="76.0" rx="7" fill="none" stroke="#5a4c50" stroke-width="1.3"/>
<rect x="231.0" y="19.0" width="117.6" height="19" fill="#171314"/>
<rect x="222.6" y="123.5" width="646.8" height="380.0" rx="7" fill="none" stroke="#ee3a33" stroke-width="1.3"/>
<rect x="231.0" y="114.0" width="294.0" height="19" fill="#171314"/>
<rect x="226.8" y="190.0" width="638.4" height="38.0" fill="#34272b" rx="0"/>
<text x="16.8" y="13.7" textLength="67.2" lengthAdjust="spacingAndGlyphs" fill="#ffffff" font-weight="700" xml:space="preserve">\_ TORRO</text>
<text x="84.0" y="13.7" textLength="33.6" lengthAdjust="spacingAndGlyphs" fill="#c4c3c3" font-weight="700" xml:space="preserve">CAST</text>
<text x="117.6" y="13.7" textLength="25.2" lengthAdjust="spacingAndGlyphs" fill="#ffffff" font-weight="700" xml:space="preserve"> _/</text>
<text x="806.4" y="13.7" textLength="50.4" lengthAdjust="spacingAndGlyphs" fill="#ffd2ce" xml:space="preserve">v0.2.0</text>
<text x="16.8" y="32.7" textLength="50.4" lengthAdjust="spacingAndGlyphs" fill="#e4dfe0" font-weight="700" xml:space="preserve"> Menü </text>
<text x="16.8" y="70.7" textLength="25.2" lengthAdjust="spacingAndGlyphs" fill="#6a5e61" xml:space="preserve">1  </text>
<text x="42.0" y="70.7" textLength="75.6" lengthAdjust="spacingAndGlyphs" fill="#e4dfe0" xml:space="preserve">Entdecken</text>
<text x="16.8" y="89.7" textLength="25.2" lengthAdjust="spacingAndGlyphs" fill="#6a5e61" xml:space="preserve">2  </text>
<text x="42.0" y="89.7" textLength="33.6" lengthAdjust="spacingAndGlyphs" fill="#e4dfe0" xml:space="preserve">Abos</text>
<text x="16.8" y="108.7" textLength="25.2" lengthAdjust="spacingAndGlyphs" fill="#6a5e61" xml:space="preserve">3  </text>
<text x="42.0" y="108.7" textLength="92.4" lengthAdjust="spacingAndGlyphs" fill="#e4dfe0" xml:space="preserve">Neue Folgen</text>
<text x="176.4" y="108.7" textLength="25.2" lengthAdjust="spacingAndGlyphs" fill="#ffffff" font-weight="700" xml:space="preserve"> 6 </text>
<text x="16.8" y="127.7" textLength="126.0" lengthAdjust="spacingAndGlyphs" fill="#ffffff" font-weight="700" xml:space="preserve">4  Als Nächstes</text>
<text x="176.4" y="127.7" textLength="25.2" lengthAdjust="spacingAndGlyphs" fill="#ffffff" font-weight="700" xml:space="preserve"> 4 </text>
<text x="16.8" y="146.7" textLength="25.2" lengthAdjust="spacingAndGlyphs" fill="#6a5e61" xml:space="preserve">5  </text>
<text x="42.0" y="146.7" textLength="75.6" lengthAdjust="spacingAndGlyphs" fill="#e4dfe0" xml:space="preserve">Downloads</text>
<text x="16.8" y="165.7" textLength="25.2" lengthAdjust="spacingAndGlyphs" fill="#6a5e61" xml:space="preserve">6  </text>
<text x="42.0" y="165.7" textLength="109.2" lengthAdjust="spacingAndGlyphs" fill="#e4dfe0" xml:space="preserve">Einstellungen</text>
<text x="16.8" y="184.7" textLength="25.2" lengthAdjust="spacingAndGlyphs" fill="#6a5e61" xml:space="preserve">7  </text>
<text x="42.0" y="184.7" textLength="42.0" lengthAdjust="spacingAndGlyphs" fill="#e4dfe0" xml:space="preserve">Hilfe</text>
<text x="16.8" y="260.7" textLength="142.8" lengthAdjust="spacingAndGlyphs" fill="#e4dfe0" font-weight="700" xml:space="preserve"> 0  Läuft gerade </text>
<text x="16.8" y="336.7" textLength="184.8" lengthAdjust="spacingAndGlyphs" fill="#e4dfe0" font-weight="700" xml:space="preserve">LdN 412 · Haushalt, R…</text>
<text x="16.8" y="355.7" textLength="126.0" lengthAdjust="spacingAndGlyphs" fill="#978a8d" xml:space="preserve">Lage der Nation</text>
<text x="16.8" y="393.7" textLength="42.0" lengthAdjust="spacingAndGlyphs" fill="#978a8d" xml:space="preserve">41:20</text>
<text x="142.8" y="393.7" textLength="58.8" lengthAdjust="spacingAndGlyphs" fill="#978a8d" xml:space="preserve">1:34:10</text>
<text x="16.8" y="412.7" textLength="92.4" lengthAdjust="spacingAndGlyphs" fill="#978a8d" xml:space="preserve">Kapitel 4  </text>
<text x="109.2" y="412.7" textLength="92.4" lengthAdjust="spacingAndGlyphs" fill="#c4c3c3" xml:space="preserve">Rentenpaket</text>
<text x="16.8" y="450.7" textLength="16.8" lengthAdjust="spacingAndGlyphs" fill="#e4dfe0" font-weight="700" xml:space="preserve">◀◀</text>
<text x="16.8" y="469.7" textLength="25.2" lengthAdjust="spacingAndGlyphs" fill="#978a8d" xml:space="preserve"> , </text>
<text x="58.8" y="450.7" textLength="16.8" lengthAdjust="spacingAndGlyphs" fill="#e4dfe0" font-weight="700" xml:space="preserve">▮▮</text>
<text x="58.8" y="469.7" textLength="25.2" lengthAdjust="spacingAndGlyphs" fill="#978a8d" xml:space="preserve"> ␣ </text>
<text x="100.8" y="450.7" textLength="8.4" lengthAdjust="spacingAndGlyphs" fill="#e4dfe0" font-weight="700" xml:space="preserve">■</text>
<text x="96.6" y="469.7" textLength="25.2" lengthAdjust="spacingAndGlyphs" fill="#978a8d" xml:space="preserve"> x </text>
<text x="134.4" y="450.7" textLength="16.8" lengthAdjust="spacingAndGlyphs" fill="#e4dfe0" font-weight="700" xml:space="preserve">▶▶</text>
<text x="134.4" y="469.7" textLength="25.2" lengthAdjust="spacingAndGlyphs" fill="#978a8d" xml:space="preserve"> . </text>
<text x="176.4" y="450.7" textLength="16.8" lengthAdjust="spacingAndGlyphs" fill="#e4dfe0" font-weight="700" xml:space="preserve">▶▮</text>
<text x="176.4" y="469.7" textLength="25.2" lengthAdjust="spacingAndGlyphs" fill="#978a8d" xml:space="preserve"> n </text>
<text x="16.8" y="488.7" textLength="33.6" lengthAdjust="spacingAndGlyphs" fill="#e4dfe0" font-weight="700" xml:space="preserve">1,3×</text>
<text x="50.4" y="488.7" textLength="33.6" lengthAdjust="spacingAndGlyphs" fill="#978a8d" xml:space="preserve">   ⏾</text>
<text x="84.0" y="488.7" textLength="58.8" lengthAdjust="spacingAndGlyphs" fill="#978a8d" xml:space="preserve"> 30 min</text>
<text x="8.4" y="526.7" textLength="33.6" lengthAdjust="spacingAndGlyphs" fill="#e4dfe0" font-weight="700" xml:space="preserve"> ↑↓ </text>
<text x="42.0" y="526.7" textLength="92.4" lengthAdjust="spacingAndGlyphs" fill="#978a8d" xml:space="preserve"> Auswahl   </text>
<text x="134.4" y="526.7" textLength="42.0" lengthAdjust="spacingAndGlyphs" fill="#e4dfe0" font-weight="700" xml:space="preserve"> J K </text>
<text x="176.4" y="526.7" textLength="126.0" lengthAdjust="spacingAndGlyphs" fill="#978a8d" xml:space="preserve"> Verschieben   </text>
<text x="302.4" y="526.7" textLength="25.2" lengthAdjust="spacingAndGlyphs" fill="#e4dfe0" font-weight="700" xml:space="preserve"> d </text>
<text x="327.6" y="526.7" textLength="109.2" lengthAdjust="spacingAndGlyphs" fill="#978a8d" xml:space="preserve"> Entfernen   </text>
<text x="436.8" y="526.7" textLength="25.2" lengthAdjust="spacingAndGlyphs" fill="#e4dfe0" font-weight="700" xml:space="preserve"> p </text>
<text x="462.0" y="526.7" textLength="142.8" lengthAdjust="spacingAndGlyphs" fill="#978a8d" xml:space="preserve"> Jetzt spielen   </text>
<text x="604.8" y="526.7" textLength="25.2" lengthAdjust="spacingAndGlyphs" fill="#e4dfe0" font-weight="700" xml:space="preserve"> C </text>
<text x="630.0" y="526.7" textLength="84.0" lengthAdjust="spacingAndGlyphs" fill="#978a8d" xml:space="preserve"> Leeren   </text>
<text x="714.0" y="526.7" textLength="42.0" lengthAdjust="spacingAndGlyphs" fill="#e4dfe0" font-weight="700" xml:space="preserve"> esc </text>
<text x="756.0" y="526.7" textLength="84.0" lengthAdjust="spacingAndGlyphs" fill="#978a8d" xml:space="preserve"> Zurück   </text>
<text x="235.2" y="32.7" textLength="117.6" lengthAdjust="spacingAndGlyphs" fill="#e4dfe0" font-weight="700" xml:space="preserve"> Läuft gerade </text>
<text x="235.2" y="51.7" textLength="16.8" lengthAdjust="spacingAndGlyphs" fill="#ee3a33" font-weight="700" xml:space="preserve">▶ </text>
<text x="252.0" y="51.7" textLength="411.6" lengthAdjust="spacingAndGlyphs" fill="#e4dfe0" font-weight="700" xml:space="preserve">LdN 412 · Haushalt, Rentenpaket, Wahl in Norwegen</text>
<text x="252.0" y="70.7" textLength="235.2" lengthAdjust="spacingAndGlyphs" fill="#978a8d" xml:space="preserve">Lage der Nation · noch 52:50</text>
<text x="252.0" y="89.7" textLength="378.0" lengthAdjust="spacingAndGlyphs" fill="#6a5e61" xml:space="preserve">Danach geht es ohne Pause mit Platz 1 weiter.</text>
<text x="235.2" y="127.7" textLength="294.0" lengthAdjust="spacingAndGlyphs" fill="#e4dfe0" font-weight="700" xml:space="preserve"> Als Nächstes · 4 Folgen · 2:19:45 </text>
<text x="235.2" y="146.7" textLength="8.4" lengthAdjust="spacingAndGlyphs" fill="#6a5e61" xml:space="preserve">1</text>
<text x="260.4" y="146.7" textLength="327.6" lengthAdjust="spacingAndGlyphs" fill="#e4dfe0" xml:space="preserve">Aufstand gegen das Rentenpaket (Update)</text>
<text x="260.4" y="165.7" textLength="84.0" lengthAdjust="spacingAndGlyphs" fill="#978a8d" xml:space="preserve">Was jetzt?</text>
<text x="806.4" y="146.7" textLength="42.0" lengthAdjust="spacingAndGlyphs" fill="#978a8d" xml:space="preserve">11:23</text>
<text x="235.2" y="203.7" textLength="8.4" lengthAdjust="spacingAndGlyphs" fill="#6a5e61" xml:space="preserve">2</text>
<text x="260.4" y="203.7" textLength="294.0" lengthAdjust="spacingAndGlyphs" fill="#e4dfe0" font-weight="700" xml:space="preserve">LNP 531 · Chatkontrolle, die dritte</text>
<text x="260.4" y="222.7" textLength="159.6" lengthAdjust="spacingAndGlyphs" fill="#978a8d" xml:space="preserve">Logbuch:Netzpolitik</text>
<text x="789.6" y="203.7" textLength="58.8" lengthAdjust="spacingAndGlyphs" fill="#978a8d" xml:space="preserve">1:48:02</text>
<text x="235.2" y="260.7" textLength="8.4" lengthAdjust="spacingAndGlyphs" fill="#6a5e61" xml:space="preserve">3</text>
<text x="260.4" y="260.7" textLength="529.2" lengthAdjust="spacingAndGlyphs" fill="#e4dfe0" xml:space="preserve">Rentenpaket – CSU-Politiker Hoffmann: Das wird uns noch öfter …</text>
<text x="260.4" y="279.7" textLength="159.6" lengthAdjust="spacingAndGlyphs" fill="#978a8d" xml:space="preserve">Interview der Woche</text>
<text x="806.4" y="260.7" textLength="42.0" lengthAdjust="spacingAndGlyphs" fill="#978a8d" xml:space="preserve">25:08</text>
<text x="235.2" y="317.7" textLength="8.4" lengthAdjust="spacingAndGlyphs" fill="#6a5e61" xml:space="preserve">4</text>
<text x="260.4" y="317.7" textLength="344.4" lengthAdjust="spacingAndGlyphs" fill="#e4dfe0" xml:space="preserve">Minkorrekt 341 · Plasma im Marmeladenglas</text>
<text x="260.4" y="336.7" textLength="436.8" lengthAdjust="spacingAndGlyphs" fill="#978a8d" xml:space="preserve">Methodisch inkorrekt · angefangen, weiter ab 1:02:10</text>
<text x="764.4" y="317.7" textLength="84.0" lengthAdjust="spacingAndGlyphs" fill="#978a8d" xml:space="preserve">noch 55:00</text>
</svg>
